<svg width="270" height="170" viewBox="0 0 270 170" xmlns="http://www.w3.org/2000/svg">
    <g fill="none" fill-rule="evenodd">
        <path d="M76.653 90.28c.733.502 1.774.327 2.387.872.389.346 1.067.663 1.306 1.144.15.304.158.75.158 1.088 0 1.654-2.097 3.33-3.524 3.873-1.443.938-3.4 1.437-5.11 1.5-.524.02-.805.535-1.24.582-.489.301-.071.487-.27.882-.143.282-.543.269-.728.515-.37.495-1.589 1.028-2.191 1.323l-4.671 2.288c-.452.341-1.378.496-1.94.703-.517.191-1.157.485-1.622.76-.598.354-2.766 1.012-2.993 1.604-.138.36-.117.374-.485.515-.372.143-.568.48-.923.629-1.36.577-3.201.65-4.625.46-.461-.063-.792-.468-1.259-.48-.675.105-1.49.068-2.163.235a.397.397 0 0 1-.121.075c-.119.482-1.003-.192-1.128-.319-.17-.17-.187-1.13-.187-1.378 0-.354.205-.703.383-.994.489-.8 1.653.187 2.442.3 1.869.268 1.697-1.08 2.732-1.998.48-.424.632-.581 1.185-.084.462.416.856.589 1.11.028.501-.202.557-.069 1.006.113.865.35 1.012.6 1.38-.413.284-.782.511-.259 1.044-.337a2.168 2.168 0 0 0 1.073-.479c.54-.471.59-.555 1.314-.694.29-.055.558.219.765.075l.513-.356c.378-.01.375-.63.615-.928l1.175-1.463c.803-1 2.03.1 3.049-.441.313-.167.83-.795 1.156-.807.655-.023.48-.456 1.026-.788.302-.16.413-.577.783-.422.492.207.298-.043.298.526 0 .224 2.09 1.906 1.8.093-.174-1.087-.459-.967-1.305-1.369-.533-.253.852-.996.913-1.078.153-.205.221-.388.448-.535.157-.101.342.027.503-.018.144-.041.467-.604.681-.741.221-.143.226.082.532-.225.245-.248.822.04.895-.197.135-.444.616-.32.932-.638.229-.304.307-.737.522-1.032.224-.306.17-.913.532-1.106.132-.07.384-.022.41-.225.022-.176.01-.344.01-.526 0-.142-.076-.485 0-.59.07-.1.376-.623.512-.347.035.07.043.144.075.215.055.125.176.164.27.254.153.145.177.31.401.384l.15-.028zm18.257-8.178c-.059-.383-.13-.668-.13-1.078.301-.103.98-.854 1.146-.835.106.012.222.37.382.413.285.077.625-.448.625-.703 0-.307.548-.413.774-.413.292 0 .493-.268.737-.244.235.024.395.158.606.235.192.07.476.087.242.328-.341.351-.807.502-1.119.816-.216.218-.384.57-.7.675-.537.18-.855.758-1.388.74-.26-.008-1.064.716-1.231.348l.056-.282zM27.888 46.147c.173-.31.386-.585.653-.816.281-.243.192-.564.392-.816.15-.19.257-.185.41-.45l.447-.778c.591-1.028.588-2.113.317-3.217-.593-.147-1.154-.07-1.613.3-.157.127-.407.006-.531.122-.303.283-.354.275-.755.15-.094-.029-.587.507-.662.62-.139.206-.378.824-.448 1.068-.185.643-.429 1.017-.429 1.679-.131.29.019.668-.205.957-.357.459.553.22-.084.862-.081.082-.053.4-.093.516-.083.242-.292.066-.494.066-.022.086.093.148.093.262-.19.028-.667.465-.261.591.31.097.164.294.074.516-.072.179-.046.326-.046.516 0 .213-.254.738-.317.984-.016.061.056.589.056.704.194 0 .483-.296.373.178-.111.476-.084.717-.467.094-.382-.624-.278.263-.298.506 0 .413.317.75.317 1.041 0 .37-.123 1.713.569 1.116.19-.163.543-.14.242-.516-.245-.306-.363-.25-.177-.562.132-.222-.331-.386-.158-.6.026-.034.508-.064.531-.038.184.206-.064 1.027.103 1.313.319.544.269 1.626 1.156 1.763.144.022.28-.046.429-.038.1.006.108.197.214.225.463.123.582.544 1.11.544.586 0-.445-.692.298-.722.746-.03-.655-1.13-.886-1.256a1.255 1.255 0 0 1-.484-.479l-.374-.6c0 .47.012.462-.242.816-.469.654-.361.032-.643-.535-.281-.563.086-.667.056-1.219-.016-.275-.08-.61 0-.872.177-.58.451-.217.186-.872-.113-.28.366-.074.299-.338-.103-.4-.162-.29.13-.731.162-.269.198-.595.354-.863.07-.117.14-.243.215-.356.105-.16.237-.272.326-.45l.317-.385zm152.002 9.35c-.22.886-.875.719-1.1 1.275-.223.548-1.01-.25-.728.826.098.373-.126.55-.29.844-.24.434-.639.43-.27 1.031.253.411-1.23.89-1.23 1.585 0 .203-2.275 1.332-2.61 1.5l-.02-.009c0-.066-.074-.594-.028-.61 0-.185.189-.455.122-.59-.156-.316.216-.462.177-.563-.278-.725.17-.817.522-1.378.324-.518.464-.952.485-1.576.03-.932.406-.97.886-1.538.518-.378.777-1.01 1.268-1.407.24-.192.76-.375.671-.787-.069-.318-.28-.54.159-.441.2.045.493.043.67.15.209.126.231.49.486.619.247.124.641-.066.895-.066 0 .11-.136.27-.168.375-.057.188.033.338.112.516l-.01.244zm11.701 2.12c-.056.13-.242.604-.242.722-.012.003-.015.007-.019.018-.119 0-.354-.075-.475-.122-.392-.15-.06-.58.046-.9.104-.314.125-.522.448-.703.516-.289.251-.734.513-1.097.092-.129 1.129-.338 1.305-.338 0 .3-.276.775-.373 1.078-.181.57-.272 1.098-.373 1.688-.105.614-.168.463-.634.347 0-.107.068-.75-.056-.75l-.14.056zm-3.198-.02c-.219-.065-.61-.262-.82-.262 0 .124-.175.29-.15.347.047.106.816.252.933.45.09.154.116.24.298.3.12.04.3.054.373.15-.183.184-.328.156-.093.413.139.152.261.221.261.45 0 .246-.348.497-.01.647.128.056.411.345.476.122.179-.613-.206-.882-.224-1.416-.005-.17.056-.437-.028-.581-.111-.195-.384-.293-.54-.45l-.476-.17zm1.622 3.452c-.105.057-.217.108-.326.16-.12.056-.23.212-.354.121a.928.928 0 0 0-.373-.169c0-.08.186-.154.186-.318-.076 0-.18.11-.242.15-.093.058-.253.056-.326.121-.099.088.02.166.093.244.199.213.058.412.13.647.048.158.41.006.504-.018.159-.042.283-.047.447-.047.2 0 .115-.21.14-.357.014-.077.214-.326.27-.384l-.149-.15zm4.653-.61c.098-.133.151-.26.215-.412.026-.065.064-.131.084-.197.013-.046.065-.074.074-.104.048.013.08.062.13.076.13.034.31.005.215.196-.059.12-.144.209-.205.32-.043.077-.065.115-.065.206 0 .104.013.165-.093.215-.185.088-.34.01-.523.01l.168-.31zm5.455 1.707c-.057-.089-.058-.197-.177-.197-.194 0-.378.01-.57-.01-.08-.007-.381-.18-.39-.018-.018.29.315.35.475.516.057.059.123.18.205.206.12.038.286-.168.392-.216l.065-.281zm1.771-7.062a1.226 1.226 0 0 1-.428-.75c-.033-.211.018-.422-.01-.638-.024-.192-.104-.209-.028-.43.035-.102.01-.48.14-.48.167 0 .378.161.56.207.562.143.531.11.531.675 0 .516.26.92.177 1.482-.022.149.097.367.037.488-.105.214-.661-.16-.736-.263l-.243-.29zm9.091 42.36c.016-.208.259-.073.373-.215.178-.22.049-.312-.009-.488-.276 0-.438-.073-.56-.319-.057-.116-.243-.153-.363-.178-.232-.047-.388-.286-.597-.14-.285.198-.53.187-.876.187 0 .063.074.177.074.282 0 .424-.114.224.243.478.31.22.293.635.708.75.203.056.291-.025.467-.122.113-.062.39-.017.456-.084l.084-.15zm3.674-.328a1.003 1.003 0 0 1-.158-.384c-.036-.245-.079-.123-.29-.188-.188-.058-.078.14-.111.282-.063.268-.307.367-.578.319-.23-.042-.255.023-.15.225.069.13.118.235.094.384-.058.362.35.053.512.113.173.063.345.122.532.122.05-.204.131-.34.364-.282.319.08-.054-.324-.168-.347l-.047-.244zm-1.883-1.125c-.045.077-.45.13-.55.113-.084-.014-.147-.078-.206-.141a2.37 2.37 0 0 0-.251-.244c-.156-.126.243-.267.335-.366.167-.177-.068-.278.038-.422.087-.118.232-.12.354-.15.127-.03.211-.126.317-.206.283-.214.16-.182.298.056.107.183.174.229-.037.31-.065.025-.246.178-.112.216.412.116.053.486-.084.703l-.102.131zM82.946 161.3a1.286 1.286 0 0 0-.25-.44c-.085-.085-.227-.104-.327-.197-.075-.07-.214-.252-.326-.244-.062.004-.196.196-.252.244-.198.167-.37.38-.103.581.14.105.362.111.513.197.176.1.05.471.242.535.241.078.46-.03.513-.282l-.01-.394zm70.64-29.775c.262-.087.64-.475.867-.656.212-.17.45-.314.644-.497.139-.132.398-.168.41-.394.013-.244-.043-.45-.056-.694-.007-.136-.368-.031-.457-.028-.398.013-.734.04-1.128-.056-.3-.075-.357-.037-.261.3.06.213.265.956-.112.956-.557 0-.138.616-.037.92l.13.15zm2.91-1.21c0-.176-.033-.482.009-.647.052-.206.314-.223.466-.365.151-.142.103-.322.103-.507-.269 0-.58.1-.858.132-.284.032-.397.02-.345.337.05.308.216.607.084.91-.138.313-.008.592.354.384l.186-.243zm-3.264-13.654c.08-.256-.067-.422-.308-.422-.431 0-.185-.326-.335-.572-.046-.075-.234-.196-.234-.272 0-.048.122-.143.15-.206.043-.1.087-.208.112-.31.022 0 .455.3.522.338.217.122.928.5.941.75.005.087-.08.203-.009.272.168.164.394.152.588.282.112.075-.119.23-.15.3-.13.296-.004.393-.41.084-.306-.232-.42.11-.708.038l-.159-.282z" fill="#D2BB8F"/>
        <g stroke="#D2BB8F">
            <path d="M23.757 28.379c.903.406 1.242-.055 2.088-.243.827-.184 1.404.266 2.173.42 1.199.242 2.635-.25 3.666-.878.543-.33.857-.434 1.448-.617.704-.22.858-.861 1.411-1.3.824-.653 1.952.305 2.433 1.038.626.954 1.115.173 1.996.206.68.025 1.34.373 2.135.373 1.086 0 .414 1.369.696 2.113.45 1.191.317 1.854 1.467 2.609.81.532 1.474 1.141 2.246 1.627.774.486 1.118.904 2.089 1.178.978.276 1.654.987 2.116 1.841.482.89 1.323.981 1.829 1.74.299.447.506.547.854.878.435.414.565 1.333.835 1.88.554 1.118 1.823 1.35 2.86 1.776.372.152.64.542.798.907.086.197.11.458.167.663.08.286.356.44.418.71.266 1.172 1.117-.068 1.81.281.584.295 1.18 1.102 1.745 1.524.547.41 1 .662 1.458 1.178.282.32.605.834 1.02.963.694.216 1.427.072 2.052.533.16.118.314.198.466.251.545.19 1.072-.006 1.78.039.553.034 1.15-.082 1.718.028.628.121.716.03 1.272-.178 1.01-.377 1.096.264 2.014-.72.32-.342.957.392 1.263.524.453.196.91-.334 1.28-.505 1.01-.467 3.261.071 4.517.483.154.05.287.122.413.144.516.088.795.327 1.374.186 1.272-.308 1.889.053 3.054.365.893.24 1.641.15 2.516-.121 1.23-.382 1.799-.858 3.11-.889.58-.013.83-.53 1.318-.607.57-.091.702.43 1.077.495 1.03.178 1.216-.148 2.07-.589 1.086-.56 2.393.225 3.509.225 1.296 0 2.625-.592 3.518-1.487.399-.4.15-1.3.835-1.449.495-.107 1.235-.709 1.755-.608l2.2.428 1.17.227c1.441.28.5 2.692 2.06 2.692.798 0 1.042-1.093 1.263-1.73.328-.942 1.093-1.361 1.996-1.43.597-.045 1.24.219 1.8.421 1.54.556 2.475 2.222 2.405 3.786-.024.543.053 1.22 0 1.795-.089.958-.261 1.772-.51 2.693-.126.463-.02.914-.084 1.374-.09.646-.441.945-.64 1.543-.162.485-.566.815-.818 1.234-.223.372-.139.708-.13 1.122.014.599-.297 1.12-.547 1.627-.248.501-.317 1.2-.492 1.739-.29.891.534 1.31.659 2.01.089.495-.164 1.045-.297 1.514-.23.808-.119 1.843-.464 2.6-.424.927-1.354.848-2.238 1.205-.553.224-1.114.684-1.114 1.328 0 1.345-.436 1.854-1.011 2.973-.286.555-.538.96-.409 1.599a3.382 3.382 0 0 1-.074 1.608c-.206.673-.223 1.299-.51 1.954-.151.343-.532.564-.669.963a6.925 6.925 0 0 0-.371 2.234c0 .919.337 1.723.399 2.59.042.59.337 1.534.622 2.047.51.922 1.646 1.035 2.116 2.104.202.46.425.791.335 1.318-.082.473-.537 1.003-.604 1.44-.19 1.24.703 2.548.51 3.917-.076.543-.547 1.378-.844 1.833-.401.613-.511 1.332-.603 2.038-.083.634-.287 1.778.222 2.262.402.382.81.26.994.926.239.87.743 1.174.77 2.14.025.872.356 1.486.78 2.245.474.848.435 1.173-.01 2.038-.375.73-1.1 1.261-1.587 1.907-.747.993-1.895.137-2.72.458-.37.144-1.023 1.191-1.012 1.58.03.998 1.214 2.033 1.486 3.085.131.51.083 1.011.083 1.533 0 .663.378 1.058.539 1.665.186.702.613 1.264.408 2.056-.278 1.073-1.134 1.853-1.42 2.861-.297 1.045.189 2.482.315 3.572.04.342.66.943.808 1.271.414.924-.132 2.044-.158 3.085-.014.567.116 1.195-.009 1.749-.11.485-.203.959-.111 1.44.137.724.917.61.399 1.58-.606 1.133-2.494-.328-3.017.626-.128.232.002.5.009.738.025.886-.779 1.743-1.355 2.347-.238.25-.718.36-1.003.552-.484.324-.494 1.244-.77 1.785-.649 1.27-1.627 1.345-2.581 2.179-.818.715.326 1.922.798 2.543.582.763 1.7.696 2.089 1.776.24.669.457 1.114 1.068 1.524.974.654 1.225.974 1.262 2.178.014.47.301.647.668.851a.88.88 0 0 1 .412.51c.06.179.127.378.099.575-.045.32.035.603-.102.935-.222.534-.33.984-.214 1.552.208 1.021 1.3.643 1.616 1.44.313.793.179 1.963.26 2.87.045.505.858 1.698 1.271 1.953.361.224.964.334 1.151.73.42.885-.722 1.145-.91 1.757-.163.537.301.753-.5 1-.315.098-.617.476-.641.814"/>
            <path d="M106.626 45.794c.047-.09.065-.201.14-.269.51-.468-.028-.467-.298-.467-1.035 0-.535-.831-.984-1.318-.185-.202-.41-.137-.64-.197-.236-.06-.29-.226-.344-.43-.031-.12-1.69-.466-1.188-.972.35-.353.187-.375-.12-.71-.137-.15-.03-.239.083-.365.116-.132.01-.319-.028-.487-.191-.838-.05-.496.353-1.093.315-.47-.204-.662-.037-.991.162-.322.441-.372.222-.767-.187-.338-.852-.855-.538-1.253.238-.302.704-.251.845-.411.221-.253.484.188.64.075.292-.211.83-.609.854-1.01.01-.172-.217-.248-.26-.42-.071-.291-.083-.644.13-.833.569-.503.226-.415.093-.823-.083-.255-.73-.682-.353-.86.166-.078.523-.013.734-.056.176-.036.406-.193.529-.318.177-.178.285.07.353-.374.02-.14.327-.997.51-.635.12.236.003.41.316.57.264.136.74-.457.984-.552.476-.184.618.064.872.43.162.233.58-.018.785.227.34.407.702.691 1.202.874.408.15 1.295-1.792 1.573-1.286.34.619.323.374.92.45.184.023.25.183.324.34.148.314.429-.17.631-.214.383-.084.648-.579.943-.381.237.159.738.396 1.021.168.783-.632.758-.001 1.587.309.511.19 1.317-.059 1.857-.038.88.034 1.217 1.083 1.634-.093.262-.74.16-.244.631-.412.304-.108.513-.61.863-.72.433-.134.786.054 1.226.131.516.091 1.814-.729 2.2-.364.526.497.64.029 1.253.102.492.06.55-.62 1.067-.71.423-.073.366.42.492.682.255.53.403.054.771.01.558-.068.461-.167.334-.608-.088-.306.155-.27.26-.523.109-.261-.107-.85.028-1.253.105-.315-.166-.59.167-.757.451-.228.705-.725.631-1.235-.1-.695-.772-.67.232-1.187.338-.173.183-.402.149-.673-.032-.252.27-.345.399-.533.413-.6.194.221.752-.196.158-.118.308-.248.492-.318.362-.14.538-.137.789-.496.216-.309.575-.562.863-.813.183-.159.265-.32.39-.514.065-.1.33-.162.344-.169.786-.42.477-1.944 1.968-1.944.744 0 1.213.12 1.856-.318.404-.275.698-.324 1.151-.411.86-.166 1.214.342 1.634-.711.37-.928-.364-.456-.891-.823-.254-.177.013-.774-.056-1.066-.18-.768-.643-.65-.26-1.57.12-.286.045-.486-.093-.748-.239-.457-.457-.707-.24-1.215 1.392-3.284-1.806-3.51-3.036-5.604-.976-1.66.652-1.952 1.706-2.683.604-.419-1.248-2.792-1.372-3.541M269 25.817c-1.045.41-1.224 1.305-1.258 2.076-.028.63-.86.523-1.254.7-.366.167-.379.517-.64.702-.499.354-.717-.203-.966.673-.172.607-1.125.166-1.615.196-.717.046-.347.407-.761.627-.351.187-.817-.306-1.151.01-.541.511-1.495-.53-1.866-.973-.459-.547-.717-.154-1.262-.355-.34-.125-.288-1.216-.854-.645-.36.361-.429.358-.409-.187.023-.632-.297-.082-.473-.075-.205.008-.277-.125-.474-.084-.25.051-.013.237-.055.43-.121.542-.742-.315-.947-.374-1.622-.472-2.116 1.857-3.76 1.3-.473-.161-1.556-.808-1.587 0-.037.945-1.31-1.279-1.31.214 0 .84-.758-.132-.547.59.233.8-.718.417-1.235.878-.907.81-1.898-.657-2.033.234-.12.795-.533-.412-.659-.57-.217-.276-1.118.394-1.624.205-.476-.177-.756-1.28-1.03-1.327-.443-.075-.345-.032-.613-.45-.08-.122-.133-.28-.24-.411a1.935 1.935 0 0 0-.624-.504c-.304-.143-.723-.17-.872-.496-.254-.552-.353-1.683-.307-2.3.056-.74.123-.698-.538-1.066-.26-.144-.181-.294-.306-.42-.23-.231-.658.082-.854-.42-.153-.39.678-.196.195-.637-.17-.155-.279-.347-.01-.589.19-.17.237-.32.112-.542-.21-.374.645-.932-.102-1.047-.462-.071-.36-.355-.39-.739-.045-.578-.699.539-1.003-.093-.12-.25-.123-.641-.056-.907.128-.502.758-1.042.353-1.608-.277-.387-.576-.039-.037-.748.235-.309.074-.607.325-.916.183-.226.28-.4 0-.627-.807-.65-.229-.61.149-1.327.175-.334-.401-.686-.604-.86-.194-.167.462-.883.566-1.075.478-.883-.123-.655-.881-.655-.463 0-.575-.09-.808-.486-.315-.537-.507-.245-.873.028-.484.362-.752.527-1.337.654-.524.115-.753.494-.984.907-.179.321.487.752-.11.786-.432.024-.094.527-.307.729-.369.348-.56.78-.585 1.243-.028.503-.914.93-.826 1.29.048.2.047 1.109-.4.702-.668-.61-.119.592-.24.7-.136.122-.554-.418-.734-.523-.327-.19-.637.333-.854.206-.877-.512-.632.326-1.253.589-.415.176-.541.31-.669.645-.363.954-1.019 1.124-1.652 1.814-.595.648-.568.863-1.467.664-.287-.064-.44.115-.715.15-.303.037-1.086-.345-1.086.177 0 .395-1.077.573-1.448.589-.386.016-.453.169-.436.495.026.5-.286.36-.464.45-.646.32-1.491-.187-1.959.7-.374.71-1.804 1.352-2.544 1.571-.593.176-1.327-.776-1.838-1.047-.645-.343-.961.008-1.606.093-.557.075-.538.176-.956.421-.26.153-.5-.044-.733-.112-.314-.092-.592.281-.956.206-.123-.026-.732-.328-.845-.14-.047.078-.04.167-.093.224a4.58 4.58 0 0 1-.306.28c-.204.164-.584.078-.678.42-.127.466-.7.637-1.03.992-.206.22-.188.371-.019.57.215.253-.672.832-.306 1.365.18.262.587.51.863.673.392.234.284.492.13.823-.273.588-.257 1.002-.325 1.627-.045.419-.556 1.416-.807.514-.21-.749-.186.665-.186.71 0 .498-.556.484-.9.412-.657-.138-1.329.494-1.83.262-.358-.167-.834-.433-1.234-.374-.667.099-1.33-.031-1.587-.655-.195-.471-.132-1.451-.864-.477-.17.227-.463.324-.473.627-.012.38-.128 1.18-.715.795-.197-.13-.277-.309-.538-.309-.274 0-.639.126-.9.243-1.204.537-2.043 2.804-2.043 4.17 0 .147-.002.417-.04.667-.035.234-.102.45-.23.53-.253.157-.569.155-.705.448-.473 1.022-1.194.764-1.262 1.973-.035.626-.32 1.386-.241 2.029.08.66.298 1.288-.567 1.505-1.804.453-.163 1.31-.12 2.319.037.882-.957.128-1.207.317-.172.13-.193.333-.38.45-.273.169-.717-.063-.892.195-.364.538.45.732.019 1.384-.548.827-.855 2.03-1.57 2.74-.342.34-1.106.723-1.55.944-.46.228-.721.297-1.253.355-.197.021-.313.227-.492.28-.384.115-.677.07-.993-.168-.168-.126-.292-.295-.492-.374-.23-.09-.472-.16-.715-.121-.229.036-.433.168-.65.252M173.343 61.905c-.47.538-.879.932-1.569 1.169l-1.365.467c-.484.166-.23.502-.315.907-.118.557-.546 1.355-1.18 1.355-.687 0-1.008-.087-1.336.533-.459.87-.777 1.658-1.81 1.795-.835.112-1.117-.329-1.086.692.053 1.741 1.744.11 2.218 1.403.138.376.043.873.158 1.28.156.552.343 1.274.316 1.852-.028.582.483.416.798.617.428.273-.153 1.603-.167 2.066-.025.862-.332.723-.854 1.271-.544.572-.535-.097-.975.047-.253.083-.287.39-.677.337-.539-.075-.75-.862-1.532-.683-.363.083-.57.7-.77 1.029-.197.32-.737.31-1.05.495-.585.348-.507.83-.594 1.45a6.818 6.818 0 0 1-.39 1.57c-.25.641-1.546.57-2.098.57-.217 0-.688.083-.991.192-.344.123-.472.28.23.388.221.034 1.981.3 1.56.841-.406.52-3.245.62-2.878 1.403.247.527.712.155.705 1.047l-.018 2.655c-.017 2.359 1.734.216 3.156.654 1.046.322.369.944-.241 1.14-.288.094-.675.122-.91.281-.358.243-.522.48-.947.73-.41.24-.966.27-1.401.43-.547.201-1.631.674-1.996 1.112-.359.43.488 1.026-.4 1.262-.343.092-.72.66-.593 1.02.03.087.604-.212.872-.122.342.114.944.596 1.17.888.306.396-.579.916-.826 1-.556.19-1.103 1.194-1.616 1.637-.518.448-1.12-.368-1.568.299-.49.728-.912 1.555-.567 2.459.137.358.544.579.734.925.205.374.024.928.325 1.3.26.32.536.048.603.504.092.63.521 1.423 1.058 1.805.386.273 1.073.327 1.29.813.152.339.032.874.056 1.244.023.348.752 1.039 1.086 1.103.285.054.334-.21.65.093.207.2.441.375.622.599.9 1.11-.617.524-.696 1.57-.07.939-.704 3.079-1.439 3.59-.325.227-.372 1.17-.316 1.534.098.625 1.245.598 1.105 1.253-.153.716-.759.604-.01 1.093.464.303.522.551.54 1.104.021.695.677.996.677 1.757 0 .827-.577 1.782-.687 2.637-.073.565.031.586.455.822.247.139.457 1.412.436 1.711-.01.152-.43.377-.455.71-.03.408.692.157.799.749.143.795-.34 1.493.612 1.935.773.358.808 1.401-.028 1.795-.576.272-.687 1.084-1.17 1.356-.514.29-.954-.155-1.466 0-.497.15-.559.522-.715.953-.42 1.165-1.439 1.849-1.791 2.983-.203.652-.817 1.13-1.207 1.655-.681.917 1.134 1.812.278 2.627-.31.295-1.279.563-1.3 1.047-.019.468 1.709.748 1.876 1.29.114.37.26 1.751-.019 1.991-.278.24-.725.412-1.095.328-.252-.058-.877-.148-.947.224-.038.204.923 1.412 1.216 1.449.223.028 1.47-.147 1.3.28-.118.298-.446.388-.446.758 0 .405.464.632.53 1 .1.562-.335.79-.029 1.552.293.728 1.034 1.063 1.114 1.776.111.985-2.682 1.375-1.531 2.702.396.458 1.171.492 1.55.973.41.521.652.909.622 1.59-.04.906-.277 1.58.315 2.318.481.597.387 1.21-.139 1.739-.604.608-.826.326-1.54.467-.688.136-.437.296-.567.748-.13.455-.999.965-.111 1.421.349.18 1.256.454.733 1.085-.326.393-.306.957-.53 1.402-.099.199-.193.38-.361.533-.203.185-.482.482-.687.657"/>
        </g>
        <path d="M105.39 33.429c.249-.354.577-.762 1.034-.527.39.202.645-.085 1.043.103.372.176.489.082.755-.188.423-.427.755.062 1.211-.14.454-.203.904-.267 1.37-.057l.54.11c.41.15 1.3-1.803 1.579-1.293.341.622.324.375.922.451.186.024.252.185.326.344.149.315.43-.172.634-.217.384-.083.65-.581.946-.383.238.16.741.399 1.025.17.786-.636.76-.002 1.593.31.513.192 1.321-.059 1.863-.038.883.035 1.222 1.09 1.64-.094.263-.743.16-.245.634-.414.304-.108.515-.614.866-.724.435-.135.788.054 1.23.132.518.091 1.821-.734 2.208-.367.528.5.642.029 1.258.103.494.06.552-.625 1.071-.714.424-.074.367.422.494.686.256.532.404.054.773.01.56-.068.463-.168.336-.612-.089-.308.155-.272.26-.527.11-.262-.107-.853.029-1.26.105-.316-.167-.593.167-.762.453-.228.708-.728.634-1.241-.102-.7-.776-.675.233-1.195.338-.175.183-.404.149-.677-.032-.253.27-.347.4-.536.415-.605.195.222.755-.198.158-.119.31-.249.494-.32.363-.14.54-.137.792-.498.217-.311.577-.566.866-.819.183-.16.266-.322.392-.517.064-.1.331-.162.344-.17.223.217.333.591.708.565.887-.062.545-.104.876.611.32.692.466 1.672 1.537 1.562.664-.068.415-.579.802-.753.205-.092.848.019 1.071.076 0 .428.494.442.671.724.336.534.104.3.68.3 0 .15.205.317.252.5.067.264-.297.515-.466.686-.41.682-.309.525.093.931.59.596.679-1.106 1.36-.254.506.633.563-.93 1.146-.93 0 .19-.13.496.121.545.088.016.527-.061.54.065.06.534.522.072.811.226.106.057.288.742.447.922.17.191-.241.484-.307.658-.36.96.068.452.745.452.641 0 .456-.276.811-.724.36-.456.297-.331.736-.527.155-.069.276-.495.335-.658.173-.471.63.309.653-.01.032-.44 1.031-.558 1.378-.733.578-.157.46.032.764.338.224.225.358-.232.504-.33.343-.228 1.146-.106.568-.545-.36-.273-.06-.45.214-.705.075-.07.322.105.569-.104.171-.145.227-.389.372-.564.2-.24.63-.554.904-.715.364-.214.223-.551.373-.875.204-.49-.38-.293-.028-.733.255-.32-.042-.393.466-.179.35.148.571 0 .931.056.362.057.61.18.988.18.818 0-.101-.6.838-.725.481-.065.588-.47.885-.79.536-.576.942.362 1.482.63.265.132.558.019.848.019.424 0 .186-.195.186-.442.226-.077.546-.007.764-.141.101-.063-.103-.657-.01-.885.194-.401.495-.742.895-.94.338-.168.306-.342.363-.659.075-.414.273-.17.392-.442.09-.206-.072-.39-.019-.564.096-.313.397-.426.494-.837.058-.247.398-.13.559-.395.158-.261.705-.814.456-1.11-.507-.604.15-.683.224-1.28.37-.655-.364-1.013.326-1.57.388-.314.487-.905.848-1.157.26-.182.582-.296.801-.499.282-.26-.374-.705.373-1.006.549-.221.222-.938.969-1.138.75-.702.365-.88.727-1.675.537-1.18-.075-2.041 1.556-1.335 1.12.485.911.1 1.91-.198.269-.08.402-.42.68-.536l1.034-.433c.379-.158.513-.05.885 0 .466.063 1.052-.62 1.574-.489.513.13.925-.088 1.556-.207.758-.108 1.344-.102 2.115-.348 1.465-.465.952 1.074 1.994 1.515.51.216 1.811-.737 2.003-.348.107.216.334 1.025.494 1.09l.848.349c.11.045-.116.482 0 .658.033.051.512-.178.848.141.185.177.292-.166.41-.272.256-.233.509-.276.829-.377l2.935.8c.516.14.031 1.022.708 1.364 1.248.63 1.473-1.765 2.776-1.505.314.062 1.18-.508 1.435-.715.71-.576 1.224.088 1.882.254l1.394.474a.767.767 0 0 0 .022-.07c.13-.498.389-.469.261-1.016-.07-.302.312-.419.382-.696.054-.214-.337-.375-.01-.573l1.286.018c.421.073.878.228 1.258-.047.524-.379 1.286.633 1.286-.414 0-.484.754-1.16.848-.79.096.378.74.298 1.034.725.336.489 1.304.52 1.696 1.063.25.347.565 2.758 1.425 2.389.512-.22.24.079.503.263.523.366.824-.733 1.137-.33.227.294.38.07.633.057.3-.014.177.3.177.508 0 .56.458 1.022.066 1.571-.099.137.252.415.298.593.076.294-.005.474.158.761.52.067.437.456.578.885.1.303.715 1.037.643 1.11.142.214-.032.952.009 1.25.035.256.601.302.885.462.533.37.585.166.736.818.075.323.106.92.317 1.176.27.325.915.062 1.258.254.748.419.654.413 1.556.413.568 0 .874.443 1.23.443.72 0 .652.132.652-.593 0-.631.05-1.9.792-.95.23.296 1.26.217 1.183-.17-.01-.045.81-.487.922-.338.12.159.531.57.624.141.033-.15.963-.823 1.137-.884.704-.245.91.441 1.817.066.374-.216.861-1.054 1.239-.367.127.231.4.596.68.386.222-.167.477.1.606-.16.069-.14.293-.296.447-.188.171.119-.045.63.242.583.336-.055.563-.395.978-.254l.322.118c.024-.075.084-.13.219-.137.6-.034-.068-.467.112-.79.155-.28.31-.543.554-.721.12-.087.26-.154.433-.192.587-.128.856-.294 1.342-.658.367-.275.56-.568.876-.028.233.399.346.489.81.489.761 0 1.365-.23.885.658-.105.194-.763.914-.568 1.082.203.176.782.53.606.865a1.91 1.91 0 0 1-.149.238c.566.187 1.173.486 1.751.59.395.071.522-.166.531.179l.019.677c.005.183-.28.335-.224.508l.298.903c.085.256.522.201.522.499 0 .426-.003.955.13 1.354.181.542.78.81.97 1.383.017.305.416 1.373.791 1.373.163-.327.596-.846 1.007-.846.25 0 .373.197.587.197.182 0 .278-.301.41-.301.087.176.581.534.782.574.33.066.612-.46 1.072-.555.405-.084.792.091.512.564.079.134.486.094.643.094l.01.01c0 .616.072 1.347.67 1.75.303.203.372-.057.643.385.188.306.44.326.755.404.023.096.04.455.018.546-.594 0 .065.893.065 1.223 0 .433.025.242.336.338.233.072.476.466.494.725.01.152-.235.097-.224.206.01.098.323.251.27.461a.939.939 0 0 0-.037.405c.036.199.274.485.065.696-.225.227.02.498.298.498l.455.29c.311-.201 1.056.224 1.427.35 1.65.561 2.146-1.782 3.774-1.307.205.06.829.921.95.376.043-.194-.196-.381.056-.433.197-.04.27.093.475.085.177-.007.498-.56.475.075-.02.549.05.552.41.188.426-.43.504.08.66.414l-.073.63c.131.202.335.325.335.574 0 .524.556-.051.625.555.032.286.124.622.195.894.054.202.072.447.345.395.485-.094.429-.087.429.376 0 .453-.064.935-.41 1.26-.051.139-.175.23-.168.377.03.655-.487.529-.606 1.006-.053.217-.789.523-.41.828.216.173.484.14.615.423.117.252.188.178.401.245.32.099.065.545.391.545.4 0 .377-.13.578.235l.326.424-.652.498c-.658.301-.895 1.89-1.323 2.502-.642.919-1.98.436-2.758 1.063-.535.431.112 1.258.112 1.75 0 1.527-.996.995-2.087 1.467-1.17.506-1.307 1.291-1.957 2.276-.427.648-.934.806-1.658.988-.965.243-2.671.526-3.429-.292-.956-.423-2.376-1.982-3.466-.93-.76.732-.599 2.82-1.583 2.971-1.01.156-1.316.026-2.134-.498-.504-.323-.966.19-1.398.386-.284.288-.263.564-.736.564-.274 0-.567.09-.745.3-.379.448-.338 1.244-.699 1.553-.318.272-.723.544-.987.875-.356.445-.32.812-.345 1.41-.026.618-.487 1.264-1.109 1.42l-.009.01.028.772c-.142.77-.006 1.433-.913 1.824-.702.303-1.522.046-2.152.621-.387.353-.539.92-.95 1.251-.555.445-1.1.634-1.696.978-.7.405-1.09 1.356-1.398 2.07 0 1.154.462 2.071.606 3.16.142 1.081-.41 2.26-.41 3.358 0 1.02-2.316 1.25-3.065 1.543-.275.107-.311.682-.429.95-.24.544-.399 1.093-.755 1.59-.202.282-1.295 1.224-1.276 1.363l.168 1.204c-.05.872-.844 1.066-1.146 1.75-.26.587.126 1.212.214 1.787.066.434-.069 1.042-.205 1.449-.168.5-.848.638-1.165 1.034-.237.297-.2.66-.382.903-.191.628-.352 1.904-.922 2.277-.62.405-1.77.72-2.245 1.232-.395.425-.74.84-1.063 1.335-.343.527-1.03 1.327-1.462 1.778-.23.694 1.066.752 1.37 1.082.587.64-.228 1.178-.504 1.684-.209.382-.121.952-.121 1.382 0 .893-.883.478-.997 1.167-.188 1.14-1.415.471-1.807 1.345.285 1.158.89 1.662.363 2.897-.474 1.109-1.523.774-2.348 1.25-.67.388-.825 1.296-1.202 1.9-.109.591-.154 1.18-.438 1.722-.12.232-.626.992-.568 1.214.186.715 1.232.748 1.444 1.27.336.823-.106.916-.568 1.382-.281.284-.46.656-.708.978-.549.369-1.605-.006-1.882.31-.29.332.202 1.589-.047 1.722-1.258.673-1.09 2.502-2.758 1.797-.346-.147-.698-.033-1.052 0-.678.063-1.021 1.338-1.23 1.918.042.562.303.695.186 1.317-.076.406-.53 1.02-.727 1.402-.375.731-1.326 1.68-1.295 2.474.034.86.44 1.085.895 1.683.194.51.501.819.53 1.392.02.38-.134 1.215-.456 1.44-1.09.762-2.152-.734-3.056.856-.348.613-.754 1.418-.754 2.135 0 .412.261.827.223 1.223-.052.144-.616.746-.745.79l.074 1.627-.009.01c-.557 0-.903.631-1.435.545-.723-.117-.725-.496-1.146.385-.44.922-1.73 2.915-2.897 1.665-.178-.19-.304-.664-.382-.743-.262.16-1.189.354-1.5.339-.353-.03-.96-.934-1.435-1.148-.531-.239-.92.333-1.183.734-.446.68-1.642-1.074-2.31-.988-.992.128-1.452.372-2.293.828-.772.419-1.668 1.319-1.472 2.173l.326 1.42c.103.45-1.125.376-1.388.386-.578.022-.136.986-.326 1.458l-.382.602c-.686.103-.755 1.215-1.463.95-.34-.127-.389-.624-.857-.32-.552.359-.74 1.15-1.565.348-.459-.446-1.045-1.198-1.621-1.448a4.3 4.3 0 0 1-.842-.498l-.519-.039c-.464-.155-.823-.444-1.313-.291-.482.15-.294.773-.382 1.138-.1.414-.28.451-.634.658-1.276.343-2.215-.368-3.345-.611-1.09-.234-1.261-.317-2.124.33-.44.329-1.247.388-1.798.347l-.587 1.251c-.152.01-.599.367-.615.02-.004-.083.059-.427-.018-.462-.104-.047-.212.135-.27.198-.187.198-.204-.061-.215-.198-.01-.14-.238-.14-.345-.17-.619-.273-.398-.254-.587-.733-.044-.112-.764-.752-.857-.752-.025-.08-.25.116-.28.14-.15.125-.323.187-.484.292-.234.154-.397.397-.68.452-.354.068-.935-.687-1.267-.894-.345-.215-.333-.569-.4-.922l-.422.076-.459.603-.44.499-.284.525-.51.038c-.393 0-.438-.235-.662-.424-.028-.227-.162-.508-.27-.714-.077-.147-.073-.532-.14-.621h-1.118c-.485 0-1.032.183-1.51.066-1.13.086-1.8 1.092-2.971 1.43-.347.099-.73-.09-1.007.131l-1.202.96h-.046c-.346-.521-1.17-.73-1.752-.838-.928-.17-.818-1.062-1.49-1.373-.486 0-1.083-.417-1.212-.94-.138-.035-.502.268-.54.423-.158 0-.924-.392-.96-.537-.49-.122-.837 1.215-1.518 1.054-.369-.087-2.153-.578-2.171-.198-.028.604-.233.63-.67.95-.71.52-.792.292-1.417.518-.365.131.263 1.333.727 1.448 0 .207-.903.643-1.053.743-.268.228-.36.3-.671.198-.26-.085-.194.055-.373.235-.36.365-.044.739-.354 1.129-.17.214-.37.358-.605.508-.39.248-.576.694-.876 1.016-.278.297-1.301.911-1.696.809-.31-.081-.445-.525-.633-.753l-3.066 1.966c0 .285.565 1.062.802 1.223.365.248-.513.232-.55.14-.32-.794-1.654.198-2.143-.338-.158-.173-1.304-.239-1.304.113 0 .323-.542.095-.755.066-.21-.03-1.013-.086-1.127-.235-.127-.166-.067-.697-.14-.922l-.4-1.242-1.212.01c-.067.274-.788 1.164-.978 1.41-.28.623-.566.695-.317 1.44.139.414.176.838.494 1.157-.003.012-.006.016-.01.028-.92.184-3.765-.483-3.009 1.561.185.499.69.818-.233.668-.607-.098-.027-.834-1.08-.225-.35.201-.821.012-1.193-.048-.345-.055-.697-.385-.969-.413-.15-.016-.53.749-.67.874-.149.05-.283.098-.439.104-.11.004-.22-.01-.326-.01-.337 0-.344.17-.475.442-.536.375-1.242.106-1.789.292-.679.231.266 1.273-.428 1.43-.25.056-.722-.138-.904-.31-.338-.32-.817-.138-.895-.612-.065-.402-1.412-.325-1.714-.79-.669-1.032-1.773.478-1.984-.386-.084 0-.023.426-.019.499l.028.536c.019.357.048.902-.307 1.1-.042.085-.633.912-.68.49-.045-.391-.34-.098-.308.16.02.166.112.375.056.545-.053.16-.378.137-.485.292-.079.115.307.435.15.705-.264.451-.516.051-.662.715-.136.615-1.034.556-1.202.94-.052.12.255.532-.047.546-.567.027-.221-.334-.559.188-.088.137-.35.047-.484.047-.467 0-.685.703-1.202.442-.45-.226-.392-.852-.81.02-.2.91-.02 1.406-1.016 1.015-.742-.291-.5 1.104-.484 1.383.033.614-.525.142-.858.084-.272-.047-.495.057-.754.057-.181 0-.362-.986-.718-1.195l-.782-.46c-.032-.019-.59.508-.708.658-.447.564-.164.554-.83.103-.692-.468-1.404.201-1.99.115-.174-.4-.423-.366-.87-.453-.68-.134-1.71-2.001-2.683-.997-1.247 1.287-1.795-1.578-2.674-.076-.702 1.2-1.197 1.13-2.236.33-.453-.35-1.01-.164-1.37-.443-.807-.623-.39-.693-1.425-.489-.262.052-.575.279-.801.066-.17-.159-.318-.192-.532-.056-1.088.69-.654-.149-1.304-.179-1.078-.05-1.274 1.985-2.525.611-.607-.666-.576-.332-.82-1.27-.107-.412-.62.204-.792.245-.329.078-.468-.628-.745-.752-.645-.29-.64.536-1.332-.273-.605-.708-1.121-.233-1.65-.602-.32-.225-.19-.368-.717-.292-.42.06-.518.346-.894.028-.673-.567-.784-1.785-1.072-2.596-.418-1.177-1.145-1.134-1.826-1.947-.46-.548-.822-1.123-1.593-.997-1.263.207-2.14.114-3.326-.404-.3-.131-.673-.515-.95-.207-.322.358.125.87-.094 1.091-.601.61-.881-1.12-1.332-.301-.296.538-.442-.442-.466-.611-.088-.636-1.097.652-1.472-.17-.481-1.054 1.31-.013 1.444-.696.103-.522-.932.13-.95-.254-.02-.436.68-.588.568-1.072-.184-.792-.82 1.162-1.099.404-.05-.136-.042-.687-.242-.696-.578-.025-.274.7-.345.979-.09.352-.685.315-.578-.132.084-.346.378-.557.205-.884-.092-.175-.392.432-.53.526-.19.13-.321-.372-.252-.517.403-.849.164-.587-.68-.611-.29-.009-.483-.486-.494-.753-.017-.404 1.256-.737.605-.903-.285-.072-.722.236-.857.076-.245-.292-.158-.95.093-1.204.566-.572-.905-.4-1.108-.64-.206-.243.328-.42.084-.753-.215-.292-1.564.19-1.165-.291.223-.269.372-.094.54-.499.256-.616-.228-.218-.39-.498-.071-.121.553-.8-.113-.602-.435.13-.825.159-1.239.3l-.074-.432c.084-.229.188-.402.037-.649-.24-.39.298-.248.298-.489 0-.156-.142-.304-.186-.451-.062-.203.053-.518-.075-.678-.232-.29-.823.284-.708-.47.031-.205.224-.306-.056-.414-.319 0-.506-.22-.773.066-.218.234-.39.052-.447-.179-.142-.578-.457-.144-.858-.583-.272-.299-.313-.254-.698-.254-.574 0-.248-.538-.7-.677-.826-.255-1.248-.773-1.965-1.129-.828-.412-1.537.152-1.537-1.213-.815 0-.832.375-1.36-.456a.97.97 0 0 0-.224-.372c-.267-.267-.665-.186-.857-.555-.187-.357-.348-.507-.643-.771-.387-.346-.278-.75-.27-1.148.004-.194-.017-.388-.13-.574-.206-.334-.418-.533-.318-.968.033-.14.267-.36.159-.461-.198-.185-.368-.226-.382-.518-.014-.29-.338-.308-.522-.432-.259-.176-.272-.606-.578-.678-.495-.116-.738.15-1.09-.385-.143-.218-.332-.999-.764-.508-.507.577-.508-.165-.745.056-.147.138-.398.187-.429-.094-.037-.351-.53.014-.642-.31-.184-.528.042-.94-.736-.31-.276.222-.522-.149-.615-.367l-.885-2.07c-.22-.514-.923-.448-.96-.715-.026-.19.185-.38-.037-.517-.447-.275-.942-.041-1.38-.348-.104-.073-.216-.07-.332-.046l-.208-.453c-.267-.214-.919-.048-1.267-.178-.362-.136-.51-.74-.857-.97-.266-.174-.402-.376-.624-.601-.22-.223-.29-.765-.233-1.072 0-.116-.019-.217-.019-.32l-.009-.01c-.59-.15-.354-.535-.4-1.025-.076-.796-.303-.63-.942-.63-.359 0-.294-.523-.307-.78-.036-.694-.586-.388-.69-.857-.061-.28-.196-.273-.41-.442-.215-.17-.352-.284-.39-.564-.082-.02-.195-.112-.318-.141-.079-.02-.426-.024-.456-.085-.02 0-.033-.004-.037-.019-.155 0-.306-.459-.317-.583-.06-.665-1.118-.278-1.072-.884.043-.558-.188-.632.187-1.11.035-.045.089-.232.14-.226.18.023.643.725.82.254.163-.437.048-.983.176-1.401.055-.179.243-.41.243-.574-.397 0-1.592-.033-1.901-.188-.889-.448.229-.768-.084-1.11-.313-.343-.354-.292-.596.047-.222.31-.531-.634-.466-.837-.16-.487-1.1-.991-1.1-1.43 0-.354.445-.826.364-1.157h-.019c-.015-.046-.647-.028-.745-.028-.043-.134.004-1.036.056-1.054v-.028c1.015-.253.922-.26 1.137-1.241.118-.542.179-1.538-.503-1.637-.008-.026-.197-.172-.233-.226-.22-.092-.66-.377-.811-.564-.097-.12-.252-.492-.373-.546-.467-.21-1.25.099-1.816-.103-.095-.034-.354-.146-.364-.132-.265.386-.49.508-.987.508-.63 0-.74.23-1.202.517-.207.128-.47-.047-.699.057-.386.174-.236.22-.708.188-.309-.021-.554-.066-.624-.414l-.401-.32c.253-.224.515-.274.699-.574.114-.186.247-.452.42-.592.189-.155.404-.194.558-.405.212-.291.356-.612.67-.809.445-.278.406-1.147.621-1.502a.844.844 0 0 0 .144-.087c.159-.112.29-.176.484-.16.168.013.239.474.578.132.214-.217.317-.142.55-.264.168-.088.077-.32.223-.414l.078-.423c.327-.708.456-.076.873-.17.483-.108.092-2.859.987-2.859.272 1.108.472.369 1.267.584.185.05.423.279.587.169.41-.275-.143-.91.68-.47.714.38 1.03.351 1.91.14.248-.059 1.147 1.518 1.463.32.229-.761.887.681 1.258.16.23-.324 1.137-.096 1.137-.46-.749 0-.893-.722-1.305-1.139-.147-.148-.355-.532-.624-.404-.156.074-.45.404-.596.404-.082-.334-.57-.414-.019-.677.427-.203 1.01-.68 1.472-.734.356-.04 1.463-.068 1.463-.611-.294-.098-.506-.542-.718-.593-.2-.048-.523.198-.559-.122-.013-.12-.82-.149-.633-.47.121-.208.31-.083.01-.226-.303-.144-.392-.397-.392-.734.28-.207.386-.06.643-.16.146-.057-.01-.363.12-.46.313-.235.835.155.644-.527-.17-.606 1.812-.174 1.108-.96-.388-.433-.1-.771-.754-.771-.335 0-.798.008-1.128.066-.265.046-.55.169-.81.188-.135.01-.197-.233-.27-.367-.227-.413.241-.325.372-.62.167-.378.122-.673-.14-1.007-.297-.688-.79-.116-1.257-.49-.062-.049-.28-.93-.28-1.024 0-.285.668.05.81-.292.127-.301-.029-.608.029-.912.039-.204.248-.312.158-.546-.073-.19-.243-1.24.075-1.223.376.021.382.398.857.264.641-.182.305-.768.475-1.176.097-.234.406-.131.447-.282.034-.123-.248-.592-.28-.762-.06-.8-.454-1.35-.689-2.06-.178-.54-1.071-.797-1.071-1.411.4 0 .584.064.661-.386.03-.174.084-.38.075-.555-.034-.612-.287-.342.214-.79.081-.072-.204-.243-.251-.273-.203-.128-.257-.493-.354-.705.078-.476.56-1.017 1.155-.771.323.133 1.221 2.295 1.323.912.08-1.083 1.165-.713 1.444-.01l1.109-.46c.332-.139-.136-.518.372-.8l1.323-.734c.309-.17.25-.554.615-.554.38 0 .783-1.057 1.044-1.364.495-.582-.35-1.06-.503-1.646.092-.188.223-.545.4-.668.355-.248.06.378.438.197.2-.094.721-.384.755-.62.305-.061.584-.455.335-.734-.059-.067.361-.648.438-.687 0-.013-.564-.137-.68-.348-.127-.23-.234-.414-.298-.677a.05.05 0 0 1-.037-.038c-.224-.055-.474.084-.662-.084-.603-.543.013-.364.168-.847.094-.293-.157-.78-.317-.997.101-.17.252-.357.252-.564-.017-.005-.015-.002-.019-.02-.24 0-.527-.139-.634-.375.105-.633-.235-.664-.67-.96-.29-.196-.373-.015-.643.141-.434.25-.966.358-1.463.358-.503 0-.975-.515-1.342-.828-.191-.219-1.002-.847-1.276-.847-.118.36-.163.638-.596.424-.306-.152-.481.026-.606-.339-.132-.388-2.441-.511-2.441-.969.091-.023.431-.135.457-.226.836-.119.434-1.34.689-1.627.203-.229.236.754.68.81.41.05 1.168-1.525 1.556-1.412.504.147.302-.31.82-.31.21 0 .838-.318.866-.518l-.344-.63c-.176-.322-.177-.47.214-.526.02-.144-.005-.297.028-.443.01-.455.238-.55.652-.357.48.223 1.096-.288 1.668-.254.144.009.232.15.447.141.184-.008.344-.113.522-.113 0 1.498 2.117.861 2.925 1.308.58.32 1.046 2.489 1.333 3.141l3.084-.094c.283-.589.178-.987.689-1.467.155-.146.714-.724.904-.724-.13.173-.115 1.056-.028 1.279.086.221.013.506.223.592 1.342.55 3.119-.22 4.445-.526.435-.031.87-.206 1.304-.273.803-.124 1.871-.301 2.665-.301l.009-.01c-.013-.05-.595-.557-.68-.658-.434-.511-.353-1.285-.382-1.938-.016-.369-.03-.675-.15-1.025-.146-.43-.554-.726-.42-1.232.051-.117.252-.413.365-.499.085-.064.53-.313.345-.46-.094-.074-.345-.257-.345-.377 0-.454-.24-.243-.447-.545-.098-.143-.027-.204.027-.33.044-.101.038-.221.038-.338l-1.584-1.232c.09-.132.192-.4.214-.555.3-.075.602.294.96.17.278-.098.534-.409.829-.528.259-.104.887.067.922-.056.064-.222.477-.984.653-1.072v-.02c.014-.004.009.001.009-.018.014-.005.01 0 .01-.019-.638-.212-.188-.592-.029-.978l.317-.818-.81-.386.978-1.514-.7-.565 1.771-1.655.606-.395c.44-.205 1.175-.762 1.668-.696.163.021.283.187.428.178.238-.014.405-.282.718-.282.632 0 .25.535.447.856.332.544 1.312.584 1.872.611l1.401-.04c.327.299.613.693.845 1.122.483.896 1.327.987 1.835 1.75.3.45.508.551.857.884.437.416.568 1.341.839 1.89.555 1.126 1.83 1.36 2.87 1.788.373.153.642.546.8.912.087.199.11.461.168.668.08.288.358.443.42.715.267 1.178 1.121-.069 1.816.282.587.296 1.185 1.108 1.752 1.533.549.412 1.003.666 1.463 1.185.284.321.607.839 1.025.97.696.216 1.43.071 2.059.535.16.119.315.2.468.253.546.192 1.075-.006 1.786.039.555.035 1.154-.082 1.724.028.63.122.718.03 1.276-.179 1.014-.38 1.1.266 2.022-.724.32-.344.96.394 1.267.527.455.197.914-.336 1.286-.508 1.013-.47 3.272.072 4.532.486.155.05.289.122.415.144.518.09.798.33 1.38.188 1.276-.31 1.895.053 3.064.367.897.241 1.647.15 2.525-.122 1.235-.384 1.806-.863 3.121-.894.584-.014.834-.533 1.323-.611.573-.092.705.433 1.081.498 1.035.18 1.221-.149 2.078-.592 1.09-.565 2.402.226 3.522.226 1.3 0 2.635-.596 3.53-1.496.401-.402.15-1.308.84-1.458.496-.108 1.238-.713 1.76-.611l2.209.43c.046-.09.065-.202.139-.27.513-.471-.027-.47-.298-.47-1.039 0-.537-.837-.988-1.327-.186-.202-.41-.138-.643-.198-.237-.06-.29-.227-.344-.432-.032-.122-1.697-.47-1.193-.978.352-.356.188-.377-.121-.715-.137-.15-.028-.24.084-.367.116-.132.01-.32-.028-.49-.192-.843-.05-.499.354-1.1.317-.472-.204-.666-.037-.997.163-.324.443-.374.223-.771-.187-.34-.855-.86-.54-1.26.24-.305.707-.253.848-.414.222-.255.486.189.643.075.292-.213.832-.612.857-1.016.01-.173-.219-.25-.261-.423-.072-.292-.084-.647.13-.837.57-.507.227-.419.093-.828z" stroke="#FFF" stroke-width="2"/>
        <path d="M93.475 119.475A3.372 3.372 0 0 0 94.5 117c0-.966-.342-1.791-1.025-2.475A3.372 3.372 0 0 0 91 113.5c-.966 0-1.791.342-2.475 1.025A3.372 3.372 0 0 0 87.5 117c0 .966.342 1.791 1.025 2.475A3.372 3.372 0 0 0 91 120.5c.966 0 1.791-.342 2.475-1.025zM98 117c0 .993-.15 1.81-.451 2.447l-4.977 10.582a1.66 1.66 0 0 1-.65.711c-.286.173-.594.26-.922.26-.328 0-.636-.087-.923-.26a1.575 1.575 0 0 1-.636-.71l-4.99-10.583c-.3-.638-.451-1.454-.451-2.447 0-1.932.684-3.582 2.05-4.95 1.368-1.366 3.018-2.05 4.95-2.05 1.932 0 3.582.684 4.95 2.05 1.366 1.368 2.05 3.018 2.05 4.95z" fill="#FFF"/>
    </g>
</svg>
