<svg width="232" height="63" viewBox="0 0 232 63" xmlns="http://www.w3.org/2000/svg" xmlns:xlink="http://www.w3.org/1999/xlink">
    <defs>
        <filter x="-.6%" y="-10%" width="101.2%" height="120%" filterUnits="objectBoundingBox" id="a">
            <feOffset dy="2" in="SourceAlpha" result="shadowOffsetOuter1"/>
            <feGaussianBlur stdDeviation="2" in="shadowOffsetOuter1" result="shadowBlurOuter1"/>
            <feColorMatrix values="0 0 0 0 0 0 0 0 0 0 0 0 0 0 0 0 0 0 0.2 0" in="shadowBlurOuter1" result="shadowMatrixOuter1"/>
            <feMerge>
                <feMergeNode in="shadowMatrixOuter1"/>
                <feMergeNode in="SourceGraphic"/>
            </feMerge>
        </filter>
        <path d="M25.89 24.21c4.938.52 9.578 2.011 13.723 7.879-3.661 6.426-10.53 10.753-18.4 10.753-8.566 0-15.946-5.127-19.295-12.508a101.644 101.644 0 0 0 7.395-2.933c5.639-2.484 11.352-3.741 16.577-3.191zm-.793-11.196L.082 23.32A21.91 21.91 0 0 1 0 21.421c0-4.608 1.44-8.876 3.892-12.37 9.416.078 16.484 1.399 21.205 3.963zM21.213 0c6.616 0 12.525 3.058 16.415 7.851l-8.883 3.66c-3.248-2.268-8.289-3.497-15.124-3.688a235.874 235.874 0 0 0-6.196-.098H6.68a152.5 152.5 0 0 0-1.79.016C8.779 3.01 14.649 0 21.213 0z" id="b"/>
    </defs>
    <g transform="translate(-380 -31)" filter="url(#a)" fill="none" fill-rule="evenodd">
        <use fill="#6CBC78" xlink:href="#b" transform="translate(416.52 41.158)"/>
        <path d="M389 75.329 475 40l-12.009 38.21c-3.427-12.124-11.818-17.237-25.174-15.34-3.636.731-7.53 2.052-11.682 3.962-6.228 2.866-16.982 6.746-27.756 8.038-5.493.658-8.619.811-9.379.459zM481 66.425l1.282-.186 5.459-15.67h3.684l5.423 15.67 1.281.186v2.166h-6.112v-2.166l1.245-.223-.79-2.475h-5.816l-.788 2.475 1.244.223v2.166H481v-2.166zm6.507-5.36h4.116l-2.021-6.35h-.074l-2.021 6.35zm12.113.941c0-2.112.458-3.816 1.374-5.112.916-1.295 2.2-1.943 3.851-1.943.748 0 1.405.167 1.972.501.567.334 1.052.811 1.454 1.43l.26-1.683h3.13v12.996c0 1.766-.553 3.175-1.658 4.227-1.105 1.052-2.623 1.578-4.554 1.578a9.001 9.001 0 0 1-2.144-.278 9.93 9.93 0 0 1-2.095-.762l.666-2.537c.575.247 1.15.443 1.725.588a7.465 7.465 0 0 0 1.824.216c.879 0 1.536-.268 1.971-.804.436-.536.653-1.283.653-2.24v-.88a4.03 4.03 0 0 1-1.392 1.152c-.534.264-1.146.396-1.836.396-1.635 0-2.91-.604-3.827-1.813-.916-1.21-1.374-2.8-1.374-4.772v-.26zm3.599.26c0 1.172.197 2.094.591 2.766.395.673 1.035 1.01 1.923 1.01.55 0 1.016-.102 1.398-.304.382-.202.688-.497.918-.885v-5.817a2.489 2.489 0 0 0-.918-.941c-.382-.223-.84-.334-1.374-.334-.879 0-1.522.392-1.928 1.176-.407.783-.61 1.807-.61 3.07v.26zm10.869 4.159 1.725-.371v-8.306l-1.91-.371v-2.178h5.262l.16 1.955c.312-.693.715-1.233 1.208-1.621a2.691 2.691 0 0 1 1.713-.582c.189 0 .388.014.598.043.209.03.384.064.523.106l-.382 3.292-1.479-.037c-.525 0-.96.103-1.306.31-.345.206-.608.498-.788.878v6.51l1.725.372v2.166h-7.05v-2.166zm10.351-4.654c0-1.997.557-3.633 1.67-4.908 1.113-1.275 2.652-1.912 4.615-1.912 1.972 0 3.514.635 4.628 1.906 1.113 1.27 1.67 2.909 1.67 4.914v.26c0 2.013-.557 3.653-1.67 4.92-1.114 1.267-2.648 1.9-4.603 1.9-1.98 0-3.527-.633-4.64-1.9-1.113-1.267-1.67-2.907-1.67-4.92v-.26zm3.599.26c0 1.221.213 2.201.64 2.94.428.738 1.118 1.107 2.07 1.107.93 0 1.61-.37 2.04-1.114.432-.742.647-1.72.647-2.933v-.26c0-1.188-.217-2.158-.653-2.909-.435-.75-1.121-1.126-2.058-1.126-.936 0-1.618.375-2.045 1.126-.428.751-.641 1.72-.641 2.909v.26zm21.43-2.228h-2.415l-.382-1.671a3.147 3.147 0 0 0-.93-.495 3.697 3.697 0 0 0-1.24-.198c-.632 0-1.133.142-1.503.427-.37.285-.554.641-.554 1.07 0 .405.176.741.53 1.01.353.268 1.06.505 2.12.711 1.65.33 2.875.815 3.671 1.454.797.64 1.196 1.52 1.196 2.643 0 1.205-.516 2.189-1.547 2.952-1.03.763-2.388 1.145-4.073 1.145-1.027 0-1.97-.15-2.828-.452a7.216 7.216 0 0 1-2.286-1.293l-.037-3.008h2.514l.493 1.745c.214.182.505.316.875.402.37.087.756.13 1.159.13.73 0 1.287-.132 1.67-.396.381-.264.572-.623.572-1.076 0-.397-.193-.739-.579-1.028-.386-.289-1.097-.544-2.132-.767-1.569-.322-2.754-.799-3.555-1.43-.801-.631-1.202-1.491-1.202-2.58 0-1.123.46-2.09 1.38-2.903.92-.813 2.231-1.22 3.932-1.22 1.035 0 2.015.141 2.939.422.924.28 1.65.64 2.175 1.076l.037 3.33zm6.876 6.015h3.722l.148-1.782h2.748v4.555h-11.079v-2.129l6.347-8.466h-3.266l-.136 1.77h-2.76v-4.567h10.672v2.067l-6.396 8.552zm16.908 2.773a6.554 6.554 0 0 1-.26-.687 5.438 5.438 0 0 1-.172-.712 4.953 4.953 0 0 1-1.558 1.201c-.613.305-1.313.458-2.102.458-1.306 0-2.343-.357-3.111-1.07-.768-.714-1.152-1.686-1.152-2.916 0-1.254.5-2.223 1.503-2.908 1.002-.685 2.473-1.028 4.412-1.028h1.836v-1.312c0-.643-.185-1.143-.555-1.497-.37-.355-.916-.533-1.639-.533-.41 0-.776.048-1.096.143-.32.095-.58.208-.777.34l-.234 1.436h-2.711l.012-2.97a10.08 10.08 0 0 1 2.262-1.127c.85-.305 1.776-.458 2.778-.458 1.652 0 2.993.406 4.024 1.22 1.031.812 1.547 1.97 1.547 3.471v5.533c0 .206.002.4.006.582.004.181.018.354.043.52l1.097.148v2.166h-4.153zm-3.118-2.414c.542 0 1.035-.117 1.479-.352.443-.236.788-.53 1.035-.885v-2.043h-1.836c-.764 0-1.344.18-1.738.539-.394.359-.591.79-.591 1.293 0 .454.145.809.437 1.065.292.256.696.383 1.214.383zM571.342 50h3.807l.025.074-3.401 3.218h-2.884L571.342 50zm18.164 9.803h-2.415l-.382-1.671a3.147 3.147 0 0 0-.93-.495 3.697 3.697 0 0 0-1.24-.198c-.632 0-1.133.142-1.503.427-.37.285-.554.641-.554 1.07 0 .405.176.741.53 1.01.353.268 1.06.505 2.12.711 1.65.33 2.875.815 3.672 1.454.797.64 1.195 1.52 1.195 2.643 0 1.205-.516 2.189-1.547 2.952-1.03.763-2.388 1.145-4.072 1.145-1.027 0-1.97-.15-2.829-.452a7.216 7.216 0 0 1-2.286-1.293l-.037-3.008h2.514l.493 1.745c.214.182.506.316.875.402.37.087.756.13 1.159.13.73 0 1.287-.132 1.67-.396.382-.264.573-.623.573-1.076 0-.397-.194-.739-.58-1.028-.386-.289-1.096-.544-2.132-.767-1.569-.322-2.754-.799-3.555-1.43-.8-.631-1.201-1.491-1.201-2.58 0-1.123.46-2.09 1.38-2.903.92-.813 2.23-1.22 3.93-1.22 1.036 0 2.016.141 2.94.422.924.28 1.65.64 2.175 1.076l.037 3.33zm6.876 6.015h3.722l.148-1.782H603v4.555h-11.079v-2.129l6.347-8.466h-3.266l-.135 1.77h-2.76v-4.567h10.671v2.067l-6.396 8.552z" fill="#222"/>
    </g>
</svg>
